PathFileType	4	(X/Y/Z)	Patient4_TMGait_0pt2_02_right_25.trc.trc
DataRate	CameraRate	NumFrames	NumMarkers	Units	OrigDataRate	OrigDataStartFrame	OrigNumFrames
44.444444444444	44.444444444444	6	33	mm	44.444444444444	18	       141
Frame#	Time	R.Midfoot.Superior			Sacral			L.Shoulder			Chest			R.Shoulder			Neck			R.ASIS			L.ASIS			R.Thigh.Superior			R.Thigh.Lateral			R.Thigh.Inferior			R.Patella			L.Thigh.Superior			L.Thigh.Lateral			L.Thigh.Inferior			L.Patella			L.Shank.Superior			L.Shank.Lateral			L.Shank.Inferior			R.Shank.Superior			R.Shank.Lateral			R.Shank.Inferior			R.Heel			R.Midfoot.Lateral			R.Toe			L.Heel			L.Midfoot.Lateral			L.Midfoot.Superior			L.Toe			L.Elbow			L.Wrist			R.Elbow			R.Wrist			
		X1	Y1	Z1	X2	Y2	Z2	X3	Y3	Z3	X4	Y4	Z4	X5	Y5	Z5	X6	Y6	Z6	X7	Y7	Z7	X8	Y8	Z8	X9	Y9	Z9	X10	Y10	Z10	X11	Y11	Z11	X12	Y12	Z12	X13	Y13	Z13	X14	Y14	Z14	X15	Y15	Z15	X16	Y16	Z16	X17	Y17	Z17	X18	Y18	Z18	X19	Y19	Z19	X20	Y20	Z20	X21	Y21	Z21	X22	Y22	Z22	X23	Y23	Z23	X24	Y24	Z24	X25	Y25	Z25	X26	Y26	Z26	X27	Y27	Z27	X28	Y28	Z28	X29	Y29	Z29	X30	Y30	Z30	X31	Y31	Z31	X32	Y32	Z32	X33	Y33	Z33	

18	55.392500000000	1333.504958075413	117.827907319561	597.713376099425	1009.416620367671	1018.972615161570	369.435234347898	1268.673525330448	1438.452664508153	257.112176318579	1308.948546556248	1357.368106426091	437.733226407207	1183.971154045457	1436.695164854609	579.684010956976	1207.634514103615	1498.071389728236	405.554252783344	1199.718345485988	948.396295539330	545.323479394758	1254.880246252151	958.988842216970	273.218486785874	1271.811915609334	767.271784272081	525.045579053771	1208.743884840757	652.687792043189	592.071935970610	1297.246611765615	605.188814708388	520.186370297624	1320.077058743276	520.314723640182	539.042677336673	1279.902559563203	745.277576801970	318.441658801749	1202.430294644229	627.775071418987	241.082017418179	1266.038041049585	551.979187410625	324.919613355943	1262.024099510089	482.340182938467	333.654258760819	1228.686983729824	410.338419603073	320.160475860030	1138.579337620722	301.041767287453	260.530006672036	1170.764571078988	188.981150541697	339.802365973856	1294.442503366352	430.895449057358	554.260446847869	1228.616006347473	330.939210090491	629.224297684606	1281.084832893451	231.911689348584	580.734716595095	1160.943882423646	53.206238286603	575.356159973538	1253.252551635049	45.592898122744	638.212324480632	1457.097857507361	74.677236210829	609.215933668564	1030.448995838402	38.616576579164	372.994899357989	1106.673740350298	35.704737040783	294.326365821199	1189.667353388913	96.836725909121	325.099406898490	1318.397228578096	45.219300487526	299.346084824194	1418.394823908307	1154.342298170123	104.789147661875	1671.148234174980	1136.161268937065	161.484445680200	974.111545491636	1151.375872390604	635.338612665619	900.142383050429	900.569531103683	630.137890849101	
19	55.415000000000	1342.113600170051	115.876945571052	599.814919830922	1009.176889123759	1019.024479705953	372.139282096175	1269.986314147688	1437.563476301444	260.976207963084	1308.006420903999	1357.502119115522	442.479442783845	1181.925873580715	1438.329630186743	582.563715306626	1207.445483823315	1498.123401966825	408.350079877946	1197.269372474877	947.726037471152	549.939608343958	1255.137545131915	959.255430249447	278.655085957167	1267.357985208243	765.051395294471	530.974194499481	1201.592471554531	650.648279324511	596.003616173161	1290.863459139921	603.287110820003	525.224415624242	1312.086608289717	520.268585869422	542.568182279177	1277.668432505718	744.483465730273	322.194501829676	1199.590366769355	628.347060536493	243.031724435319	1261.628922206709	551.357279485843	326.744788522504	1256.685919039693	482.113403154078	335.028542476723	1223.706318094666	410.411939156369	321.201340203355	1133.863055574217	301.204323443402	261.033363913218	1166.039664396219	189.043394933374	340.199766419650	1290.350938226710	430.369849685192	557.838703847376	1228.077480118125	327.394561468620	632.377735008365	1284.702378587302	230.331356066952	583.708704101115	1170.434439071010	48.761274216555	577.800526189099	1263.145778769271	42.126351522410	640.165849203520	1466.584919061407	74.417420237859	610.288832520892	1025.860753228527	38.556522642907	372.970306451369	1102.102238043298	35.644787590297	294.289940624338	1185.003667444697	96.874857098401	325.158763832300	1313.778236210379	45.504963324914	299.429473073350	1423.162420507169	1155.930801279557	109.816757570780	1676.299105378049	1147.146197583680	166.066390700459	969.422782714875	1155.413055033229	634.464945164610	894.808842050186	904.776759469998	626.417139822909	
20	55.437500000000	1346.806707781154	113.731087272491	601.092325797780	1009.224150405470	1018.602720381222	375.464295988969	1270.845446034457	1436.375785294798	265.159745709201	1307.169684318404	1357.364136790155	447.404493845022	1180.307254421140	1439.499880648798	585.984424816346	1207.220174286535	1497.822109905616	411.611674468058	1195.460481298773	946.485859125701	554.663467551963	1255.586546936245	959.428712807364	284.187933387381	1263.815400903696	762.377407994682	536.657521068602	1195.375624165946	648.072407246169	599.454396806301	1285.585414161351	601.038584252722	529.832650258335	1304.844059289436	519.351549502728	545.752788926910	1275.957085099050	743.544350761939	325.798937961194	1197.144546615353	628.754317535440	245.142910068808	1257.774433611593	550.598087108276	328.610878900548	1251.926981967904	481.726965145856	336.462537344428	1219.180844570152	410.322781782845	322.335355265807	1129.414021415546	301.377402626262	261.615624117740	1161.459487946740	189.035387017138	340.601998241829	1286.131698620416	429.134617274489	560.962010760869	1226.146360699255	324.094281213681	634.641608912166	1285.891054857244	228.656756473646	585.910757621362	1175.709381951065	46.054295134482	578.963262355045	1268.348151628812	39.781158683180	641.291260727375	1471.440317497285	72.756438073943	611.248046186448	1021.282312315714	38.520869953963	372.946641822848	1097.530921797164	35.597253916452	294.254760209487	1180.351890926921	96.909976106637	325.210180826903	1309.157596634895	45.769580738513	299.497818480866	1426.961779493308	1156.696497126093	115.247333909119	1680.247554513699	1156.337629162431	170.866768703869	966.976115067022	1157.537643541501	634.761558874077	893.388107545479	906.529919195907	624.080181609360	
21	55.460000000000	1348.049317387724	111.417177301890	601.538111135737	1009.583462339625	1017.880026649073	379.341488592235	1271.306815972429	1435.057654986882	269.689617946092	1306.484508990338	1357.082106885385	452.542173941391	1179.101991668500	1440.300467239079	589.968970272901	1206.976553133115	1497.291258983812	415.377542682930	1194.336979929264	944.844468959526	559.474847125691	1256.295182321087	959.586662983130	289.766408352894	1261.265078182267	759.420046100230	541.961982875127	1190.249962830537	645.194722631965	602.430065795191	1281.431515234343	598.593204740366	533.906362989038	1298.534447873716	517.742619263484	548.552474186426	1274.717038369548	742.494634444459	329.257829773679	1194.963427576621	629.068496741659	247.405606878817	1254.297324871011	549.748265776934	330.514858278425	1247.542841301404	481.238572354294	337.948616179764	1214.942283540183	410.155013857468	323.540554832631	1125.101326829211	301.598161749157	262.265891110683	1156.957355734718	189.001915564051	340.996802059267	1281.989462254147	427.321740578353	563.585958287303	1223.160954082834	321.006091235956	636.112009481344	1285.024414807930	226.809977264786	587.347751464109	1177.219563564849	44.580562197356	579.073275896697	1269.477595093720	38.296781397147	641.723599353262	1472.373614316508	70.034153289296	611.974300440436	1016.713051863498	38.511493888095	372.923121679011	1092.957860557816	35.564350453143	294.221848387573	1175.713169000031	96.946337975193	325.244503157585	1304.533293043387	46.013484644393	299.548536260433	1429.809874315831	1156.789955581316	121.003145720436	1683.087311383181	1163.803445664862	175.815268848912	966.504721442165	1157.975860753548	636.353514532276	895.374953619771	906.156136716174	623.385773521344	
22	55.482500000000	1346.508104880455	109.036153363921	601.239939495268	1010.256216569893	1017.029002459465	383.688011254513	1271.455495332923	1433.768978664872	274.575951534502	1305.995381372351	1356.769131663121	457.910711776605	1178.293252135321	1440.826273920757	594.507686072667	1206.744334315835	1496.653095452728	419.660832517520	1193.902550346466	942.997325948199	564.361945076620	1257.292456162300	959.782117543012	295.356005642445	1259.715150485277	756.372778060216	546.802627994641	1186.323632201900	642.269452411498	605.014762060604	1278.357444931496	596.114619173627	537.400545428015	1293.291854102223	515.668988649839	550.966345774705	1273.859322302724	741.370685834853	332.612243792663	1192.920150334743	629.352356571804	249.820254340828	1251.024181106105	548.857706636158	332.470456949305	1243.341613461042	480.705641298543	339.493482569007	1210.836062224140	409.987113086635	324.810093982384	1120.807751584190	301.900577962995	262.987333831571	1152.477579361445	188.982879369628	341.379705415401	1278.131137806566	425.116862690898	565.724415925424	1219.551042945569	318.136845836690	636.966975125189	1282.605665714505	224.792833590307	588.103178083666	1175.670363536089	43.890960728693	578.433097580858	1267.397575568918	37.444616134240	641.644051118715	1470.275926691414	66.692116139268	612.393301354206	1012.153991488569	38.528967904050	372.900891306271	1088.383235912070	35.549197971126	294.195351332756	1171.090496669132	96.986247133688	325.258791955153	1299.905877949310	46.229831153621	299.581551265299	1431.775219544420	1156.374968943660	127.001151171005	1684.955932749123	1169.636293738290	180.838460654266	967.702469446953	1157.031957181911	639.289333321838	900.206777603448	904.082416878633	624.523733487690	
23	55.505000000000	1342.939949360881	106.724190087026	600.370877204203	1011.217503745283	1016.202892222011	388.419385606153	1271.395300680468	1432.645726170402	279.805698285707	1305.739598152105	1356.512092317806	463.505322992395	1177.862258287390	1441.162701550191	599.556301632077	1206.561278470036	1496.016541577128	424.443225174613	1194.120817849876	941.146637567984	569.323514372746	1258.561793264890	960.036572876176	300.934231707983	1259.108393431074	753.445072705959	551.158540070558	1183.648775972746	639.540206124494	607.352518285064	1276.283242819751	593.769848266149	540.343795306615	1289.196866815525	513.379212025188	553.041302990874	1273.264873600704	740.207951041828	335.928841291614	1190.897910557302	629.653689090993	252.395301294934	1247.805382614621	547.974102716069	334.501045842932	1239.168282874728	480.179409518206	341.114038968834	1206.739681130440	409.882323883537	326.150504911727	1116.441858067625	302.311570906202	263.796660546037	1147.980790561621	189.008073212092	341.753397410180	1274.744657351296	422.734988282013	567.447899923927	1215.767330870876	315.530970849249	637.436122760274	1279.184441902876	222.677474839281	588.324083389690	1171.887916990173	43.639947495293	577.360643911182	1263.061094045595	37.034379534396	641.247263922698	1466.083578210765	63.173780548225	612.499667306041	1007.607438610495	38.571739769641	372.883586256207	1083.809493938413	35.555187623224	294.182368819340	1166.488692007664	97.029540389968	325.256677908195	1295.278978397054	46.403937925584	299.599250327247	1432.970228621254	1155.611845120775	133.159810981343	1686.027428656754	1173.939184207266	185.866880272366	970.238850017243	1155.054365561839	643.536831615330	907.283508622534	900.784967069320	627.590467491966	
